<svg xmlns="http://www.w3.org/2000/svg" width="97.89" height="94.46" viewBox="0 0 97.89 94.46"><path d="M107.65,4.79c-6.89,6.7-27.27,29-28.59,60.15a3.64,3.64,0,0,0,3,3.75c6.6,1.13,22.2,3,30.53-2.49a3.6,3.6,0,0,0,1.51-3.81c-1.69-7.34-5.68-32.06,11.43-51.4a3.62,3.62,0,0,0-.86-5.54C122.57,4.24,119,3.08,113,2.78A7.21,7.21,0,0,0,107.65,4.79Z" transform="translate(-79.05 -2.77)" fill="#ff2c37"/><rect x="84.56" y="56.66" width="5.95" height="8.32" rx="1" ry="1" transform="translate(-72.6 -11.14) rotate(5.68)" fill="#fff"/><rect x="86.98" y="46.7" width="4.76" height="7.13" rx="0.89" ry="0.89" transform="translate(-67.95 -18.75) rotate(10.89)" fill="#fff"/><rect x="89.47" y="39.1" width="4.16" height="5.95" rx="0.91" ry="0.91" transform="translate(-59.44 -31.24) rotate(19.76)" fill="#fff"/><rect x="92.94" y="32.21" width="3.57" height="5.35" rx="0.7" ry="0.7" transform="translate(-60.29 -34.37) rotate(20.98)" fill="#fff"/><rect x="96.21" y="25.52" width="3.57" height="4.76" rx="0.91" ry="0.91" transform="translate(-58.41 -41.19) rotate(24.72)" fill="#fff"/><rect x="99.82" y="18.95" width="3.57" height="4.16" rx="0.81" ry="0.81" transform="translate(-54.93 -50.75) rotate(30)" fill="#fff"/><rect x="103.78" y="12.88" width="3.57" height="3.57" rx="0.7" ry="0.7" transform="translate(-47.32 -64.96) rotate(38.24)" fill="#fff"/><rect x="108.23" y="7.9" width="2.97" height="2.97" rx="0.5" ry="0.5" transform="translate(-49.69 -68.67) rotate(38.24)" fill="#fff"/><rect x="99.37" y="57.5" width="5.95" height="8.32" rx="1" ry="1" transform="translate(-77.69 -4.98) rotate(1.24)" fill="#fff"/><rect x="100.97" y="47.43" width="4.76" height="7.13" rx="0.89" ry="0.89" transform="translate(-72.67 -14.06) rotate(6.45)" fill="#fff"/><rect x="102.82" y="39.69" width="4.16" height="5.95" rx="0.91" ry="0.91" transform="translate(-64.05 -28.97) rotate(15.32)" fill="#fff"/><rect x="105.72" y="32.57" width="3.57" height="5.35" rx="0.7" ry="0.7" transform="translate(-64.57 -31.92) rotate(16.54)" fill="#fff"/><rect x="108.44" y="25.65" width="3.57" height="4.76" rx="0.91" ry="0.91" transform="translate(-62.51 -39.24) rotate(20.28)" fill="#fff"/><rect x="111.51" y="18.82" width="3.57" height="4.16" rx="0.81" ry="0.81" transform="translate(-58.94 -49.61) rotate(25.56)" fill="#fff"/><rect x="114.96" y="12.47" width="3.57" height="3.57" rx="0.7" ry="0.7" transform="matrix(0.83, 0.56, -0.56, 0.83, -51.38, -65.32)" fill="#fff"/><rect x="119" y="7.19" width="2.97" height="2.97" rx="0.5" ry="0.5" transform="translate(-53.86 -68.34) rotate(33.81)" fill="#fff"/><path d="M176.7,66c-2.5-9.28-12.12-38-38.66-54.23a3.64,3.64,0,0,0-4.74.81c-4.2,5.22-13.42,17.94-12.67,27.89a3.6,3.6,0,0,0,2.6,3.17c7.23,2.09,30.77,10.63,39.36,35a3.62,3.62,0,0,0,5.26,1.95c2.08-1.26,4.83-3.81,8-8.88A7.21,7.21,0,0,0,176.7,66Z" transform="translate(-79.05 -2.77)" fill="#ff2c37"/><rect x="134.55" y="17.02" width="5.95" height="8.32" rx="1" ry="1" transform="translate(154.31 -82.47) rotate(124.78)" fill="#fff"/><rect x="143.48" y="24.34" width="4.76" height="7.13" rx="0.89" ry="0.89" transform="translate(181.92 -68.69) rotate(129.99)" fill="#fff"/><rect x="149.87" y="30.83" width="4.16" height="5.95" rx="0.91" ry="0.91" transform="translate(209.57 -43.49) rotate(138.85)" fill="#fff"/><rect x="154.91" y="37.4" width="3.57" height="5.35" rx="0.7" ry="0.7" transform="translate(223.52 -32.54) rotate(140.07)" fill="#fff"/><rect x="159.43" y="43.95" width="3.57" height="4.76" rx="0.91" ry="0.91" transform="translate(239.62 -14.24) rotate(143.81)" fill="#fff"/><rect x="163.67" y="50.74" width="3.57" height="4.16" rx="0.81" ry="0.81" transform="translate(255.5 10.39) rotate(149.1)" fill="#fff"/><rect x="167.31" y="57.59" width="3.57" height="3.57" rx="0.7" ry="0.7" transform="translate(268.95 46.24) rotate(157.34)" fill="#fff"/><rect x="170.19" y="64.08" width="2.97" height="2.97" rx="0.5" ry="0.5" transform="matrix(-0.92, 0.39, -0.39, -0.92, 276.31, 57.17)" fill="#fff"/><rect x="126.61" y="29.55" width="5.95" height="8.32" rx="1" ry="1" transform="translate(145.08 -63.87) rotate(120.34)" fill="#fff"/><rect x="136.04" y="36.2" width="4.76" height="7.13" rx="0.89" ry="0.89" transform="translate(172.2 -52.5) rotate(125.55)" fill="#fff"/><rect x="142.86" y="42.21" width="4.16" height="5.95" rx="0.91" ry="0.91" transform="translate(199.61 -29.49) rotate(134.42)" fill="#fff"/><rect x="148.37" y="48.39" width="3.57" height="5.35" rx="0.7" ry="0.7" transform="translate(214.16 -20.19) rotate(135.64)" fill="#fff"/><rect x="153.36" y="54.57" width="3.57" height="4.76" rx="0.91" ry="0.91" transform="translate(230.92 -3.61) rotate(139.38)" fill="#fff"/><rect x="158.1" y="61.01" width="3.57" height="4.16" rx="0.81" ry="0.81" transform="translate(247.74 19.31) rotate(144.66)" fill="#fff"/><rect x="162.22" y="67.56" width="3.57" height="3.57" rx="0.7" ry="0.7" transform="translate(262.55 53.6) rotate(152.9)" fill="#fff"/><rect x="165.58" y="73.84" width="2.97" height="2.97" rx="0.5" ry="0.5" transform="translate(271.06 63.52) rotate(152.9)" fill="#fff"/><path d="M89.47,94.67c9.36,2.19,39.17,7.29,66.07-8.39a3.64,3.64,0,0,0,1.53-4.56c-2.62-6.17-9.45-20.31-18.57-24.36a3.6,3.6,0,0,0-4,.79C129.21,63.52,110.55,80.22,85,76.26A3.62,3.62,0,0,0,80.83,80c.12,2.43,1.07,6.05,4,11.24A7.21,7.21,0,0,0,89.47,94.67Z" transform="translate(-79.05 -2.77)" fill="#ff2c37"/><rect x="144.52" y="77.2" width="5.95" height="8.32" rx="1" ry="1" transform="translate(62.85 246.94) rotate(-116.98)" fill="#fff"/><rect x="135.24" y="81.95" width="4.76" height="7.13" rx="0.89" ry="0.89" transform="translate(30.2 242.28) rotate(-111.77)" fill="#fff"/><rect x="127.46" y="85.12" width="4.16" height="5.95" rx="0.91" ry="0.91" transform="translate(-6.45 231.27) rotate(-102.91)" fill="#fff"/><rect x="119.99" y="86.63" width="3.57" height="5.35" rx="0.7" ry="0.7" transform="translate(-20.06 223.88) rotate(-101.69)" fill="#fff"/><rect x="112.35" y="87.95" width="3.57" height="4.76" rx="0.91" ry="0.91" transform="translate(-38.6 213.08) rotate(-97.95)" fill="#fff"/><rect x="104.62" y="88.91" width="3.57" height="4.16" rx="0.81" ry="0.81" transform="translate(-58.6 198.74) rotate(-92.66)" fill="#fff"/><rect x="97.13" y="89.31" width="3.57" height="3.57" rx="0.7" ry="0.7" transform="translate(-80.42 177.91) rotate(-84.42)" fill="#fff"/><rect x="90.74" y="88.96" width="2.97" height="2.97" rx="0.5" ry="0.5" transform="translate(-85.81 170.66) rotate(-84.42)" fill="#fff"/><rect x="137.24" y="64.27" width="5.95" height="8.32" rx="1" ry="1" transform="translate(75.84 220.99) rotate(-121.42)" fill="#fff"/><rect x="128.31" y="69.78" width="4.76" height="7.13" rx="0.89" ry="0.89" transform="translate(43.56 220.23) rotate(-116.21)" fill="#fff"/><rect x="120.75" y="73.57" width="4.16" height="5.95" rx="0.91" ry="0.91" transform="translate(7.34 213.83) rotate(-107.34)" fill="#fff"/><rect x="113.4" y="75.67" width="3.57" height="5.35" rx="0.7" ry="0.7" transform="translate(-7.14 207.99) rotate(-106.12)" fill="#fff"/><rect x="105.86" y="77.58" width="3.57" height="4.76" rx="0.91" ry="0.91" transform="translate(-26.42 199.47) rotate(-102.38)" fill="#fff"/><rect x="98.2" y="79.14" width="3.57" height="4.16" rx="0.81" ry="0.81" transform="translate(-47.3 187.71) rotate(-97.1)" fill="#fff"/><rect x="90.74" y="80.12" width="3.57" height="3.57" rx="0.7" ry="0.7" transform="translate(-70.25 170) rotate(-88.86)" fill="#fff"/><rect x="84.32" y="80.28" width="2.97" height="2.97" rx="0.5" ry="0.5" transform="translate(-76.7 163.16) rotate(-88.86)" fill="#fff"/></svg>